<?xml version="1.0" encoding="UTF-8"?> <svg xmlns="http://www.w3.org/2000/svg" width="120" height="44" viewBox="0 0 120 44" fill="none"><path d="M10.7458 28.3858C11.3342 28.3128 11.9673 28.2357 12.6896 28.1464V25.0039L0.0342661 27.9557L0 27.964V42.8163C0.726394 42.8163 1.33512 42.8123 1.89919 42.8082C2.4258 42.8082 2.92058 42.8047 3.44627 42.8009L3.55892 42.8001C4.12299 42.8001 4.73172 42.796 5.45811 42.792V29.0392C6.18044 28.9499 6.81349 28.8728 7.40191 28.7997C7.99033 28.7267 8.53413 28.6618 9.07385 28.5928C9.61357 28.5238 10.1573 28.4589 10.7458 28.3858Z" fill="white"></path><path d="M28.2755 21.3711C28.5136 21.9739 28.728 22.5556 28.883 23.0595C29.0778 23.6925 29.4309 24.9018 29.4755 26.5697C29.4918 27.1825 29.3943 28.2903 29.3051 28.9599C29.2077 29.6944 28.8668 31.0336 28.2824 32.2186C28.0674 32.6568 27.7914 33.0423 27.4992 33.3954C27.2071 33.7484 26.8946 34.069 26.5497 34.349C26.0383 34.771 25.4742 35.0957 24.8615 35.3229C24.2487 35.5502 23.5913 35.6801 22.8811 35.7166C22.5017 35.7369 22.17 35.7541 21.8621 35.7698L20.11 35.8581C19.8021 35.8738 19.4704 35.8911 19.0909 35.9114V42.737C18.3645 42.7411 17.7599 42.7411 17.1917 42.7452C16.6236 42.7492 16.0961 42.7533 15.532 42.7533C14.9679 42.7574 14.3592 42.7614 13.6328 42.7614V24.7864L28.2755 21.3711ZM23.7699 26.0381C23.4777 25.6445 23.0597 25.4862 22.5159 25.5552C21.8301 25.6444 21.3188 25.7134 20.8034 25.7784C20.2921 25.8474 19.7767 25.9123 19.0909 26.0016V30.8185C19.7767 30.7536 20.2921 30.7008 20.8034 30.6521C21.3147 30.6034 21.8301 30.5507 22.5159 30.4857C23.0597 30.433 23.4777 30.1773 23.7699 29.7147C24.0621 29.2562 24.2081 28.6231 24.2081 27.8277C24.2081 27.0283 24.0621 26.4317 23.7699 26.0381Z" fill="white"></path><path d="M45.9183 17.274C46.222 17.625 46.5353 18.0687 46.9138 18.5932L46.9188 18.6077C47.7741 19.7977 48.4344 21.2597 48.8945 22.9937C49.3547 24.7229 49.5848 26.6657 49.5848 28.8028C49.5848 30.94 49.3547 32.9119 48.8945 34.7042C48.4344 36.4965 47.7741 38.0459 46.9188 39.3476C46.0635 40.6493 45.0432 41.6402 43.8528 42.325C42.6624 43.0099 41.3519 43.345 39.9114 43.345C38.4709 43.345 37.1654 43.0099 35.985 42.359C34.8046 41.7082 33.7892 40.7853 32.9439 39.5953C32.0986 38.4053 31.4434 37.0065 30.9832 35.3891C30.5231 33.7716 30.293 31.994 30.293 30.0414C30.293 28.0888 30.523 26.282 30.9832 24.6063C31.4222 23.0075 32.0388 21.5812 32.8287 20.3273C32.8335 20.3196 32.8384 20.3119 32.8433 20.3041L45.9042 17.2578C45.9088 17.2632 45.9136 17.2686 45.9183 17.274ZM42.2872 23.1006C41.607 22.6343 40.8117 22.4449 39.9114 22.5323C39.0261 22.6197 38.2408 22.9646 37.5605 23.5572C36.8753 24.1497 36.3451 24.9657 35.97 26.0003C35.5948 27.0348 35.4048 28.2637 35.4048 29.7014C35.4048 31.1439 35.5898 32.3485 35.97 33.3345C36.3501 34.3205 36.8803 35.0588 37.5605 35.5542C38.2458 36.0448 39.0261 36.2828 39.9114 36.2536C40.8117 36.2245 41.607 35.9331 42.2872 35.3794C42.9674 34.8256 43.5026 34.0145 43.8878 32.9411V32.9459C44.2729 31.8725 44.468 30.5854 44.468 29.0845C44.468 27.5837 44.2729 26.3257 43.8878 25.3154C43.5026 24.3052 42.9674 23.5669 42.2872 23.1006Z" fill="white"></path><path d="M66.2344 12.5156C65.3599 15.8433 63.9382 21.2769 63.823 21.7139C63.6566 22.3267 63.4983 22.9354 63.336 23.536C63.1777 24.1366 63.0154 24.7331 62.8571 25.3256C62.6948 25.9181 62.5365 26.5106 62.3783 27.099C62.22 27.6915 62.0617 28.2799 61.8994 28.8724C61.7371 29.4648 61.5788 30.0614 61.4125 30.662C61.2461 31.2626 61.0797 31.8672 60.9133 32.48C60.7469 33.0928 60.5765 33.7136 60.402 34.3467C60.2275 34.9798 60.0489 35.6169 59.8704 36.2743C59.6918 36.9317 59.5052 37.5972 59.3144 38.279C59.1237 38.9607 58.9289 39.6587 58.7301 40.373C58.5312 41.0872 58.3243 41.8176 58.1132 42.5684C57.326 42.5724 56.6726 42.5765 56.0639 42.5765C55.4552 42.5805 54.8911 42.5805 54.2784 42.5846C53.6656 42.5886 53.0122 42.5927 52.229 42.5927C52.4279 41.9109 52.5983 41.3144 52.7606 40.7584C52.923 40.2025 53.0691 39.6871 53.2192 39.1717C53.3694 38.6564 53.5154 38.1369 53.6778 37.5769C53.8401 37.0169 54.0105 36.4082 54.2094 35.7143C53.9537 34.8418 53.7062 34.0099 53.4708 33.2145C53.2355 32.4191 53.0082 31.6603 52.789 30.9258C52.5699 30.1953 52.3589 29.4851 52.1519 28.8034C51.945 28.1216 51.7461 27.4561 51.5473 26.8027C51.3525 26.1535 51.1577 25.5123 50.9629 24.8792C50.7681 24.2462 50.5774 23.6172 50.3826 22.9882C50.2368 22.5151 49.0685 18.7717 48.4141 16.6721L54.1673 15.3302C54.7758 17.29 56.2609 22.0069 56.4576 22.6716C56.6929 23.467 56.9405 24.3192 57.2123 25.2526C57.4112 24.514 57.6019 23.816 57.7805 23.1545C57.959 22.489 58.1295 21.86 58.2918 21.2513C58.4105 20.8241 59.5393 16.5762 60.2502 13.9114L60.3394 13.8906L57.2976 25.2526L57.3016 25.2444L60.3414 13.8902L66.2344 12.5156Z" fill="white"></path><path d="M86.1278 42.4418C85.4055 42.4458 84.8008 42.4499 84.2408 42.4499C83.6808 42.454 83.1613 42.454 82.5973 42.458C82.0332 42.4621 81.4326 42.4661 80.7103 42.4661V18.5641C80.5114 19.3231 74.4771 41.7883 74.2782 42.5027C73.5884 42.5067 72.9837 42.5108 72.4196 42.5108C71.8596 42.5148 71.3402 42.5189 70.8207 42.5189C70.3013 42.5229 69.7859 42.527 69.2219 42.527C68.6619 42.5311 68.0572 42.5351 67.3633 42.5351V12.2517L72.7808 10.9881V30.3216C73.0319 29.4014 77.5093 12.7193 78.3141 9.69749L86.1278 7.875V42.4418Z" fill="white"></path><path d="M105.513 42.38C104.787 42.384 104.178 42.3881 103.614 42.3881C103.046 42.3922 102.518 42.3963 101.954 42.3963C101.39 42.4003 100.781 42.4044 100.055 42.4044V28.3716C99.3815 28.4162 98.789 28.4568 98.2371 28.4933C97.6852 28.5298 97.1779 28.5623 96.6706 28.5948C96.1634 28.6272 95.6561 28.6597 95.1042 28.6962C94.5564 28.7327 93.9639 28.7733 93.2862 28.8179V42.4328C92.5598 42.4368 91.9552 42.4409 91.387 42.4409C90.8189 42.4449 90.2954 42.449 89.7273 42.449C89.1632 42.4531 88.5545 42.4571 87.8281 42.4571V7.48038L93.2862 6.20732V17.2768C93.9599 17.1956 94.5524 17.1266 95.1042 17.0617C95.3802 17.0292 95.645 16.9978 95.9042 16.9669L97.4371 16.7832C97.6963 16.7523 97.9611 16.7208 98.2371 16.6884C98.7849 16.6234 99.3774 16.5545 100.055 16.4733V4.62853L105.513 3.35547V42.38Z" fill="white"></path><path d="M119.893 12.823C119.171 12.9123 118.537 12.9894 117.949 13.0624C117.361 13.1355 116.821 13.2004 116.277 13.2694C115.737 13.3384 115.194 13.4033 114.605 13.4764C114.017 13.5494 113.384 13.6265 112.661 13.7158V42.3455C111.935 42.3495 111.33 42.3536 110.762 42.3536C110.194 42.3576 109.667 42.3617 109.102 42.3617C108.538 42.3658 107.93 42.3698 107.203 42.3698V14.7993L107.199 14.7952V2.96069L119.893 -1.52588e-05V12.823Z" fill="white"></path></svg> 